<mxfile host="app.diagrams.net" modified="2020-11-06T11:40:03.102Z" agent="5.0 (Macintosh; Intel Mac OS X 11_0_0) AppleWebKit/537.36 (KHTML, like Gecko) Chrome/86.0.4240.183 Safari/537.36" etag="0UMVOoVp9YXrDtUrshgo" version="13.9.2" type="github">
  <diagram id="Seazb_rRtXd8D2D7vR21" name="Page-1">
    <mxGraphModel dx="787" dy="581" grid="1" gridSize="10" guides="1" tooltips="1" connect="1" arrows="1" fold="1" page="1" pageScale="1" pageWidth="827" pageHeight="1169" math="0" shadow="0">
      <root>
        <mxCell id="0" />
        <mxCell id="1" parent="0" />
        <mxCell id="3DrQ59vwSmMZ8Tdxqmw8-58" value="&lt;p style=&quot;margin: 0px ; margin-top: 4px ; margin-left: 7px ; text-align: left&quot;&gt;&lt;b&gt;System komp.&lt;/b&gt;&lt;/p&gt;" style="html=1;shape=mxgraph.sysml.package;overflow=fill;labelX=110;strokeWidth=2;align=center;" vertex="1" parent="1">
          <mxGeometry x="10" y="10" width="810" height="570" as="geometry" />
        </mxCell>
        <mxCell id="3DrQ59vwSmMZ8Tdxqmw8-1" value="imie:&lt;br&gt;nazwisko:&lt;br&gt;adres:&amp;nbsp;&lt;br&gt;telefon:" style="rounded=0;whiteSpace=wrap;html=1;align=left;" vertex="1" parent="1">
          <mxGeometry x="120" y="80" width="160" height="80" as="geometry" />
        </mxCell>
        <mxCell id="3DrQ59vwSmMZ8Tdxqmw8-2" value="&lt;b&gt;Człowiek&lt;/b&gt;" style="rounded=0;whiteSpace=wrap;html=1;" vertex="1" parent="1">
          <mxGeometry x="120" y="40" width="160" height="40" as="geometry" />
        </mxCell>
        <mxCell id="3DrQ59vwSmMZ8Tdxqmw8-3" value="" style="rounded=0;whiteSpace=wrap;html=1;" vertex="1" parent="1">
          <mxGeometry x="120" y="160" width="160" height="10" as="geometry" />
        </mxCell>
        <mxCell id="3DrQ59vwSmMZ8Tdxqmw8-7" value="&lt;b&gt;Klient&lt;/b&gt;" style="rounded=0;whiteSpace=wrap;html=1;" vertex="1" parent="1">
          <mxGeometry x="40" y="280" width="160" height="30" as="geometry" />
        </mxCell>
        <mxCell id="3DrQ59vwSmMZ8Tdxqmw8-8" value="" style="rounded=0;whiteSpace=wrap;html=1;" vertex="1" parent="1">
          <mxGeometry x="40" y="310" width="160" height="10" as="geometry" />
        </mxCell>
        <mxCell id="3DrQ59vwSmMZ8Tdxqmw8-9" value="" style="rounded=0;whiteSpace=wrap;html=1;" vertex="1" parent="1">
          <mxGeometry x="40" y="320" width="160" height="10" as="geometry" />
        </mxCell>
        <mxCell id="3DrQ59vwSmMZ8Tdxqmw8-11" value="&lt;b&gt;Zgłoszenie&lt;/b&gt;" style="rounded=0;whiteSpace=wrap;html=1;" vertex="1" parent="1">
          <mxGeometry x="40" y="360" width="160" height="40" as="geometry" />
        </mxCell>
        <mxCell id="3DrQ59vwSmMZ8Tdxqmw8-12" value="dataPrzyjęciaZgłoszenia:&lt;br&gt;godzinaPrzyjęciaZgłoszenia:&lt;br&gt;dataPrzypisania:&lt;br&gt;godzinaPrzypisania:&lt;br&gt;dataZrealizowania:&lt;br&gt;godzinaRozpoczęcia:&lt;br&gt;godzinaZakończenia:" style="rounded=0;whiteSpace=wrap;html=1;align=left;" vertex="1" parent="1">
          <mxGeometry x="40" y="400" width="160" height="120" as="geometry" />
        </mxCell>
        <mxCell id="3DrQ59vwSmMZ8Tdxqmw8-13" value="ustal()&lt;br&gt;&lt;div&gt;&lt;span&gt;przydziel()&lt;/span&gt;&lt;/div&gt;" style="rounded=0;whiteSpace=wrap;html=1;align=left;" vertex="1" parent="1">
          <mxGeometry x="40" y="520" width="160" height="40" as="geometry" />
        </mxCell>
        <mxCell id="3DrQ59vwSmMZ8Tdxqmw8-14" value="&lt;b&gt;Serwisant&lt;/b&gt;" style="rounded=0;whiteSpace=wrap;html=1;" vertex="1" parent="1">
          <mxGeometry x="240" y="280" width="160" height="40" as="geometry" />
        </mxCell>
        <mxCell id="3DrQ59vwSmMZ8Tdxqmw8-15" value="dataUrodzenia:" style="rounded=0;whiteSpace=wrap;html=1;" vertex="1" parent="1">
          <mxGeometry x="240" y="320" width="160" height="40" as="geometry" />
        </mxCell>
        <mxCell id="3DrQ59vwSmMZ8Tdxqmw8-16" value="" style="rounded=0;whiteSpace=wrap;html=1;" vertex="1" parent="1">
          <mxGeometry x="240" y="360" width="160" height="10" as="geometry" />
        </mxCell>
        <mxCell id="3DrQ59vwSmMZ8Tdxqmw8-17" value="&lt;b&gt;Samochód służbowy&lt;/b&gt;" style="rounded=0;whiteSpace=wrap;html=1;" vertex="1" parent="1">
          <mxGeometry x="240" y="430" width="160" height="40" as="geometry" />
        </mxCell>
        <mxCell id="3DrQ59vwSmMZ8Tdxqmw8-18" value="marka:&lt;br&gt;typ:&lt;br&gt;numerRejestracyjny:&lt;br&gt;pojemność:&lt;br&gt;przebieg:" style="rounded=0;whiteSpace=wrap;html=1;align=left;" vertex="1" parent="1">
          <mxGeometry x="240" y="470" width="160" height="80" as="geometry" />
        </mxCell>
        <mxCell id="3DrQ59vwSmMZ8Tdxqmw8-19" value="" style="rounded=0;whiteSpace=wrap;html=1;" vertex="1" parent="1">
          <mxGeometry x="240" y="550" width="160" height="10" as="geometry" />
        </mxCell>
        <mxCell id="3DrQ59vwSmMZ8Tdxqmw8-20" value="&lt;b&gt;Miasto&lt;/b&gt;" style="rounded=0;whiteSpace=wrap;html=1;" vertex="1" parent="1">
          <mxGeometry x="560" y="40" width="160" height="40" as="geometry" />
        </mxCell>
        <mxCell id="3DrQ59vwSmMZ8Tdxqmw8-21" value="nazwa:" style="rounded=0;whiteSpace=wrap;html=1;align=left;" vertex="1" parent="1">
          <mxGeometry x="560" y="80" width="160" height="40" as="geometry" />
        </mxCell>
        <mxCell id="3DrQ59vwSmMZ8Tdxqmw8-22" value="&lt;b&gt;Strefa&lt;/b&gt;" style="rounded=0;whiteSpace=wrap;html=1;" vertex="1" parent="1">
          <mxGeometry x="560" y="160" width="160" height="40" as="geometry" />
        </mxCell>
        <mxCell id="3DrQ59vwSmMZ8Tdxqmw8-23" value="" style="rounded=0;whiteSpace=wrap;html=1;" vertex="1" parent="1">
          <mxGeometry x="560" y="120" width="160" height="10" as="geometry" />
        </mxCell>
        <mxCell id="3DrQ59vwSmMZ8Tdxqmw8-24" value="" style="rounded=0;whiteSpace=wrap;html=1;" vertex="1" parent="1">
          <mxGeometry x="560" y="240" width="160" height="10" as="geometry" />
        </mxCell>
        <mxCell id="3DrQ59vwSmMZ8Tdxqmw8-25" value="nazwa:&lt;br&gt;opłataStrefowa:" style="rounded=0;whiteSpace=wrap;html=1;align=left;" vertex="1" parent="1">
          <mxGeometry x="560" y="200" width="160" height="40" as="geometry" />
        </mxCell>
        <mxCell id="3DrQ59vwSmMZ8Tdxqmw8-26" value="&lt;b&gt;Rejon&lt;/b&gt;" style="rounded=0;whiteSpace=wrap;html=1;" vertex="1" parent="1">
          <mxGeometry x="560" y="280" width="160" height="40" as="geometry" />
        </mxCell>
        <mxCell id="3DrQ59vwSmMZ8Tdxqmw8-27" value="nazwa:" style="rounded=0;whiteSpace=wrap;html=1;align=left;" vertex="1" parent="1">
          <mxGeometry x="560" y="320" width="160" height="40" as="geometry" />
        </mxCell>
        <mxCell id="3DrQ59vwSmMZ8Tdxqmw8-28" value="" style="rounded=0;whiteSpace=wrap;html=1;" vertex="1" parent="1">
          <mxGeometry x="560" y="360" width="160" height="10" as="geometry" />
        </mxCell>
        <mxCell id="3DrQ59vwSmMZ8Tdxqmw8-29" value="&lt;b&gt;Ulica&lt;/b&gt;" style="rounded=0;whiteSpace=wrap;html=1;" vertex="1" parent="1">
          <mxGeometry x="560" y="400" width="160" height="40" as="geometry" />
        </mxCell>
        <mxCell id="3DrQ59vwSmMZ8Tdxqmw8-30" value="nazwa:" style="rounded=0;whiteSpace=wrap;html=1;align=left;" vertex="1" parent="1">
          <mxGeometry x="560" y="440" width="160" height="40" as="geometry" />
        </mxCell>
        <mxCell id="3DrQ59vwSmMZ8Tdxqmw8-31" value="" style="rounded=0;whiteSpace=wrap;html=1;" vertex="1" parent="1">
          <mxGeometry x="560" y="480" width="160" height="10" as="geometry" />
        </mxCell>
        <mxCell id="3DrQ59vwSmMZ8Tdxqmw8-35" value="" style="endArrow=none;html=1;exitX=0.5;exitY=0;exitDx=0;exitDy=0;" edge="1" parent="1" source="3DrQ59vwSmMZ8Tdxqmw8-17">
          <mxGeometry width="50" height="50" relative="1" as="geometry">
            <mxPoint x="320" y="400" as="sourcePoint" />
            <mxPoint x="319.5" y="370" as="targetPoint" />
          </mxGeometry>
        </mxCell>
        <mxCell id="3DrQ59vwSmMZ8Tdxqmw8-36" value="" style="endArrow=none;html=1;exitX=1;exitY=0;exitDx=0;exitDy=0;entryX=0;entryY=0;entryDx=0;entryDy=0;" edge="1" parent="1" source="3DrQ59vwSmMZ8Tdxqmw8-15" target="3DrQ59vwSmMZ8Tdxqmw8-27">
          <mxGeometry width="50" height="50" relative="1" as="geometry">
            <mxPoint x="510" y="410" as="sourcePoint" />
            <mxPoint x="560" y="360" as="targetPoint" />
          </mxGeometry>
        </mxCell>
        <mxCell id="3DrQ59vwSmMZ8Tdxqmw8-37" value="" style="endArrow=none;html=1;exitX=0.5;exitY=1;exitDx=0;exitDy=0;" edge="1" parent="1" source="3DrQ59vwSmMZ8Tdxqmw8-24">
          <mxGeometry width="50" height="50" relative="1" as="geometry">
            <mxPoint x="590" y="340" as="sourcePoint" />
            <mxPoint x="640" y="280" as="targetPoint" />
          </mxGeometry>
        </mxCell>
        <mxCell id="3DrQ59vwSmMZ8Tdxqmw8-38" value="" style="endArrow=none;html=1;exitX=0.5;exitY=0;exitDx=0;exitDy=0;entryX=0.5;entryY=1;entryDx=0;entryDy=0;" edge="1" parent="1" source="3DrQ59vwSmMZ8Tdxqmw8-22" target="3DrQ59vwSmMZ8Tdxqmw8-23">
          <mxGeometry width="50" height="50" relative="1" as="geometry">
            <mxPoint x="590" y="220" as="sourcePoint" />
            <mxPoint x="640" y="170" as="targetPoint" />
          </mxGeometry>
        </mxCell>
        <mxCell id="3DrQ59vwSmMZ8Tdxqmw8-39" value="" style="endArrow=none;html=1;exitX=0.5;exitY=1;exitDx=0;exitDy=0;" edge="1" parent="1" source="3DrQ59vwSmMZ8Tdxqmw8-28">
          <mxGeometry width="50" height="50" relative="1" as="geometry">
            <mxPoint x="670" y="580" as="sourcePoint" />
            <mxPoint x="640" y="400" as="targetPoint" />
          </mxGeometry>
        </mxCell>
        <mxCell id="3DrQ59vwSmMZ8Tdxqmw8-40" value="1.." style="text;html=1;strokeColor=none;fillColor=none;align=center;verticalAlign=middle;whiteSpace=wrap;rounded=0;" vertex="1" parent="1">
          <mxGeometry x="400" y="300" width="40" height="20" as="geometry" />
        </mxCell>
        <mxCell id="3DrQ59vwSmMZ8Tdxqmw8-41" value="2.." style="text;html=1;strokeColor=none;fillColor=none;align=center;verticalAlign=middle;whiteSpace=wrap;rounded=0;" vertex="1" parent="1">
          <mxGeometry x="520" y="300" width="40" height="20" as="geometry" />
        </mxCell>
        <mxCell id="3DrQ59vwSmMZ8Tdxqmw8-45" value="" style="endArrow=none;html=1;exitX=0.5;exitY=0;exitDx=0;exitDy=0;" edge="1" parent="1" source="3DrQ59vwSmMZ8Tdxqmw8-11">
          <mxGeometry width="50" height="50" relative="1" as="geometry">
            <mxPoint x="70" y="380" as="sourcePoint" />
            <mxPoint x="120" y="330" as="targetPoint" />
          </mxGeometry>
        </mxCell>
        <mxCell id="3DrQ59vwSmMZ8Tdxqmw8-46" value="1..2" style="text;html=1;strokeColor=none;fillColor=none;align=center;verticalAlign=middle;whiteSpace=wrap;rounded=0;" vertex="1" parent="1">
          <mxGeometry x="360" y="370" width="40" height="20" as="geometry" />
        </mxCell>
        <mxCell id="3DrQ59vwSmMZ8Tdxqmw8-48" value="1" style="text;html=1;strokeColor=none;fillColor=none;align=center;verticalAlign=middle;whiteSpace=wrap;rounded=0;" vertex="1" parent="1">
          <mxGeometry x="360" y="410" width="40" height="20" as="geometry" />
        </mxCell>
        <mxCell id="3DrQ59vwSmMZ8Tdxqmw8-60" value="" style="endArrow=block;html=1;endFill=0;entryX=0.5;entryY=0;entryDx=0;entryDy=0;" edge="1" parent="1" target="3DrQ59vwSmMZ8Tdxqmw8-14">
          <mxGeometry width="50" height="50" relative="1" as="geometry">
            <mxPoint x="240" y="170" as="sourcePoint" />
            <mxPoint x="290" y="120" as="targetPoint" />
          </mxGeometry>
        </mxCell>
        <mxCell id="3DrQ59vwSmMZ8Tdxqmw8-61" value="" style="endArrow=block;html=1;endFill=0;entryX=0.5;entryY=0;entryDx=0;entryDy=0;" edge="1" parent="1" target="3DrQ59vwSmMZ8Tdxqmw8-7">
          <mxGeometry width="50" height="50" relative="1" as="geometry">
            <mxPoint x="160" y="170" as="sourcePoint" />
            <mxPoint x="210" y="120" as="targetPoint" />
          </mxGeometry>
        </mxCell>
      </root>
    </mxGraphModel>
  </diagram>
</mxfile>
